<svg xmlns="http://www.w3.org/2000/svg" xmlns:xlink="http://www.w3.org/1999/xlink" width="138px" height="124px" style="shape-rendering:geometricPrecision; text-rendering:geometricPrecision; image-rendering:optimizeQuality; fill-rule:evenodd; clip-rule:evenodd"><g><path style="opacity:1" fill="#68c5bd" d="M 28.5,1.5 C 46.6744,1.16988 64.6744,1.50322 82.5,2.5C 66.8333,2.5 51.1667,2.5 35.5,2.5C 33.5,2.5 31.5,2.5 29.5,2.5C 29.5,9.16667 29.5,15.8333 29.5,22.5C 28.5088,15.6866 28.1755,8.68663 28.5,1.5 Z"></path></g><g><path style="opacity:1" fill="#05988e" d="M 35.5,2.5 C 36.0906,3.15149 36.7573,3.81815 37.5,4.5C 43.3764,4.4143 48.2098,6.4143 52,10.5C 52.7429,12.4406 52.5762,14.2739 51.5,16C 54.6222,17.4208 54.9556,19.0875 52.5,21C 53.056,21.3826 53.3893,21.8826 53.5,22.5C 45.5,22.5 37.5,22.5 29.5,22.5C 29.5,15.8333 29.5,9.16667 29.5,2.5C 31.5,2.5 33.5,2.5 35.5,2.5 Z"></path></g><g><path style="opacity:1" fill="#0f9b89" d="M 35.5,2.5 C 51.1667,2.5 66.8333,2.5 82.5,2.5C 83.791,2.26269 84.791,2.59603 85.5,3.5C 78.9861,3.04459 72.6527,3.54459 66.5,5C 69.1667,5.33333 71.8333,5.66667 74.5,6C 71.4995,6.66741 68.9995,8.16741 67,10.5C 67.7037,13.0975 68.2037,15.5975 68.5,18C 67.8333,19 67.1667,20 66.5,21C 73.4076,20.6844 79.7409,22.1844 85.5,25.5C 82.1933,24.9492 78.8599,24.6159 75.5,24.5C 68.5762,22.5367 61.2428,21.8701 53.5,22.5C 53.3893,21.8826 53.056,21.3826 52.5,21C 54.9556,19.0875 54.6222,17.4208 51.5,16C 52.5762,14.2739 52.7429,12.4406 52,10.5C 48.2098,6.4143 43.3764,4.4143 37.5,4.5C 36.7573,3.81815 36.0906,3.15149 35.5,2.5 Z"></path></g><g><path style="opacity:1" fill="#199d7f" d="M 85.5,3.5 C 95.9745,3.8724 104.975,7.53906 112.5,14.5C 109.918,14.0254 107.918,14.6921 106.5,16.5C 103.402,16.5875 103.068,16.0875 105.5,15C 104.62,13.6439 104.286,12.1439 104.5,10.5C 100.287,10.3172 96.287,9.31724 92.5,7.5C 90.5113,8.17801 88.5113,8.84467 86.5,9.5C 88.4712,13.6261 87.8045,17.1261 84.5,20C 86.9005,20.1858 89.2338,20.6858 91.5,21.5C 91.2907,22.086 90.9574,22.586 90.5,23C 92.0249,24.0086 93.6916,24.5086 95.5,24.5C 96.1233,29.0629 97.79,33.0629 100.5,36.5C 95.7357,32.3864 90.7357,28.7197 85.5,25.5C 79.7409,22.1844 73.4076,20.6844 66.5,21C 67.1667,20 67.8333,19 68.5,18C 68.2037,15.5975 67.7037,13.0975 67,10.5C 68.9995,8.16741 71.4995,6.66741 74.5,6C 71.8333,5.66667 69.1667,5.33333 66.5,5C 72.6527,3.54459 78.9861,3.04459 85.5,3.5 Z"></path></g><g><path style="opacity:1" fill="#219f74" d="M 112.5,14.5 C 118.155,18.489 123.155,23.1556 127.5,28.5C 127.833,29.8333 128.167,31.1667 128.5,32.5C 126.565,31.8505 124.565,31.5172 122.5,31.5C 122.5,33.1667 122.5,34.8333 122.5,36.5C 119.955,36.8495 117.955,36.0162 116.5,34C 118.229,32.2111 118.896,30.0444 118.5,27.5C 115.833,27.5 113.167,27.5 110.5,27.5C 110.092,30.5993 111.259,32.9326 114,34.5C 114.333,44.1667 114.667,53.8333 115,63.5C 117.306,64.1367 118.473,65.6367 118.5,68C 117.802,70.7867 117.635,73.62 118,76.5C 112.766,79.156 110.766,83.4893 112,89.5C 113.667,92.6574 115.167,92.824 116.5,90C 120.204,90.3692 122.371,92.5359 123,96.5C 123.671,97.2524 124.504,97.5858 125.5,97.5C 121.833,102.5 117.5,106.833 112.5,110.5C 110.774,110.815 109.107,110.981 107.5,111C 106.786,109.657 107.12,108.324 108.5,107C 106.77,105.148 105.604,105.314 105,107.5C 104.626,106.584 104.126,105.75 103.5,105C 104.293,101.589 104.793,98.0894 105,94.5C 105.741,93.3595 106.575,93.3595 107.5,94.5C 108.221,92.314 108.887,90.1474 109.5,88C 108.5,87.1667 107.5,86.3333 106.5,85.5C 109.722,83.1692 110.722,80.1692 109.5,76.5C 110.957,66.8101 110.79,57.1435 109,47.5C 107.961,46.2899 106.794,45.2899 105.5,44.5C 105.5,43.8333 105.5,43.1667 105.5,42.5C 104.844,39.5129 103.511,36.8462 101.5,34.5C 102.39,33.2888 102.39,31.9555 101.5,30.5C 101.737,27.9365 102.237,27.9365 103,30.5C 104.487,29.8448 105.653,28.8448 106.5,27.5C 102.421,24.8949 102.587,22.5616 107,20.5C 107.765,18.9343 107.598,17.6009 106.5,16.5C 107.918,14.6921 109.918,14.0254 112.5,14.5 Z"></path></g><g><path style="opacity:0.129" fill="#bbe1d6" d="M 30.5,-0.5 C 31.1667,-0.5 31.8333,-0.5 32.5,-0.5C 33.1667,0.833333 33.8333,0.833333 34.5,-0.5C 34.8333,-0.5 35.1667,-0.5 35.5,-0.5C 54.0284,0.0960129 72.695,0.929346 91.5,2C 107.372,5.75094 119.372,14.5843 127.5,28.5C 123.155,23.1556 118.155,18.489 112.5,14.5C 104.975,7.53906 95.9745,3.8724 85.5,3.5C 84.791,2.59603 83.791,2.26269 82.5,2.5C 64.6744,1.50322 46.6744,1.16988 28.5,1.5C 29.1667,0.833333 29.8333,0.166667 30.5,-0.5 Z"></path></g><g><path style="opacity:1" fill="#179d78" d="M 106.5,16.5 C 107.598,17.6009 107.765,18.9343 107,20.5C 102.587,22.5616 102.421,24.8949 106.5,27.5C 105.653,28.8448 104.487,29.8448 103,30.5C 102.237,27.9365 101.737,27.9365 101.5,30.5C 102.39,31.9555 102.39,33.2888 101.5,34.5C 103.511,36.8462 104.844,39.5129 105.5,42.5C 103.844,40.5398 102.177,38.5398 100.5,36.5C 97.79,33.0629 96.1233,29.0629 95.5,24.5C 93.6916,24.5086 92.0249,24.0086 90.5,23C 90.9574,22.586 91.2907,22.086 91.5,21.5C 89.2338,20.6858 86.9005,20.1858 84.5,20C 87.8045,17.1261 88.4712,13.6261 86.5,9.5C 88.5113,8.84467 90.5113,8.17801 92.5,7.5C 96.287,9.31724 100.287,10.3172 104.5,10.5C 104.286,12.1439 104.62,13.6439 105.5,15C 103.068,16.0875 103.402,16.5875 106.5,16.5 Z"></path></g><g><path style="opacity:0.764" fill="#a5dfdb" d="M 28.5,1.5 C 28.1755,8.68663 28.5088,15.6866 29.5,22.5C 37.5,22.5 45.5,22.5 53.5,22.5C 61.2428,21.8701 68.5762,22.5367 75.5,24.5C 75.1667,24.5 74.8333,24.5 74.5,24.5C 59.163,24.6666 43.8297,24.4999 28.5,24C 28,23.5 27.5,23 27,22.5C 26.3333,15.8333 26.3333,9.16667 27,2.5C 27.3826,1.94404 27.8826,1.61071 28.5,1.5 Z"></path></g><g><path style="opacity:1" fill="#239f6d" d="M 128.5,32.5 C 129.724,38.58 131.224,44.58 133,50.5C 134.995,53.2966 135.828,56.4633 135.5,60C 134.428,66.6442 133.428,73.3109 132.5,80C 131.556,81.4768 130.223,82.4768 128.5,83C 126.915,83.0848 125.582,83.2514 124.5,83.5C 127.181,84.3645 128.514,86.1978 128.5,89C 127.582,91.0865 126.915,93.2532 126.5,95.5C 126.167,96.1667 125.833,96.8333 125.5,97.5C 124.504,97.5858 123.671,97.2524 123,96.5C 122.371,92.5359 120.204,90.3692 116.5,90C 115.167,92.824 113.667,92.6574 112,89.5C 110.766,83.4893 112.766,79.156 118,76.5C 117.635,73.62 117.802,70.7867 118.5,68C 118.473,65.6367 117.306,64.1367 115,63.5C 114.667,53.8333 114.333,44.1667 114,34.5C 111.259,32.9326 110.092,30.5993 110.5,27.5C 113.167,27.5 115.833,27.5 118.5,27.5C 118.896,30.0444 118.229,32.2111 116.5,34C 117.955,36.0162 119.955,36.8495 122.5,36.5C 122.5,34.8333 122.5,33.1667 122.5,31.5C 124.565,31.5172 126.565,31.8505 128.5,32.5 Z"></path></g><g><path style="opacity:0.247" fill="#c4d8e2" d="M 54.5,28.5 C 36.8333,29.1667 19.1667,29.8333 1.5,30.5C 0.833333,30.5 0.166667,30.5 -0.5,30.5C -0.5,30.1667 -0.5,29.8333 -0.5,29.5C 17.7569,28.5138 36.0902,28.1804 54.5,28.5 Z"></path></g><g><path style="opacity:0.702" fill="#b9efe2" d="M 74.5,24.5 C 74.8333,24.5 75.1667,24.5 75.5,24.5C 78.8599,24.6159 82.1933,24.9492 85.5,25.5C 90.7357,28.7197 95.7357,32.3864 100.5,36.5C 102.177,38.5398 103.844,40.5398 105.5,42.5C 105.5,43.1667 105.5,43.8333 105.5,44.5C 112.87,62.626 109.87,78.626 96.5,92.5C 95.4863,93.6737 94.153,94.3404 92.5,94.5C 113.645,73.7437 113.645,52.9103 92.5,32C 86.8564,28.4035 80.8564,25.9035 74.5,24.5 Z"></path></g><g><path style="opacity:1" fill="#8aabc2" d="M 54.5,28.5 C 55.8333,29.1667 56.8333,30.1667 57.5,31.5C 57.7845,33.4147 57.4511,35.0813 56.5,36.5C 56.7845,34.5853 56.4511,32.9187 55.5,31.5C 37.6744,30.5032 19.6744,30.1699 1.5,30.5C 19.1667,29.8333 36.8333,29.1667 54.5,28.5 Z"></path></g><g><path style="opacity:1" fill="#4a7a9e" d="M -0.5,30.5 C 0.166667,30.5 0.833333,30.5 1.5,30.5C 19.6744,30.1699 37.6744,30.5032 55.5,31.5C 37.1667,31.5 18.8333,31.5 0.5,31.5C 0.260572,33.4672 0.593906,35.3005 1.5,37C 19.1635,37.4999 36.8302,37.6666 54.5,37.5C 36.3409,38.4968 18.0076,38.8302 -0.5,38.5C -0.5,35.8333 -0.5,33.1667 -0.5,30.5 Z"></path></g><g><path style="opacity:1" fill="#063f6b" d="M 55.5,31.5 C 56.4511,32.9187 56.7845,34.5853 56.5,36.5C 55.8333,36.8333 55.1667,37.1667 54.5,37.5C 36.8302,37.6666 19.1635,37.4999 1.5,37C 0.593906,35.3005 0.260572,33.4672 0.5,31.5C 18.8333,31.5 37.1667,31.5 55.5,31.5 Z"></path></g><g><path style="opacity:1" fill="#ccdaec" d="M 57.5,31.5 C 59.6205,35.8595 58.2872,38.6928 53.5,40C 35.4563,40.8065 17.4563,40.6398 -0.5,39.5C -0.5,39.1667 -0.5,38.8333 -0.5,38.5C 18.0076,38.8302 36.3409,38.4968 54.5,37.5C 55.1667,37.1667 55.8333,36.8333 56.5,36.5C 57.4511,35.0813 57.7845,33.4147 57.5,31.5 Z"></path></g><g><path style="opacity:0.15" fill="#c6d9e2" d="M 15.5,43.5 C 33.3286,42.338 51.3286,42.1713 69.5,43C 72.2146,43.8747 73.5479,45.7081 73.5,48.5C 72.8333,47.8333 72.1667,47.1667 71.5,46.5C 70.8333,46.1667 70.1667,45.8333 69.5,45.5C 69.5,44.8333 69.1667,44.5 68.5,44.5C 51.0079,43.5033 33.3412,43.1699 15.5,43.5 Z"></path></g><g><path style="opacity:1" fill="#063e69" d="M 69.5,45.5 C 70.1667,45.8333 70.8333,46.1667 71.5,46.5C 72.0838,49.285 71.0838,50.9517 68.5,51.5C 50.8302,51.6666 33.1635,51.4999 15.5,51C 14.1667,49.3333 14.1667,47.6667 15.5,46C 33.4969,45.5001 51.4969,45.3334 69.5,45.5 Z"></path></g><g><path style="opacity:1" fill="#97a8bf" d="M 71.5,46.5 C 72.1667,47.1667 72.8333,47.8333 73.5,48.5C 73.9118,50.9726 72.9118,52.3059 70.5,52.5C 69.8333,52.5 69.1667,52.5 68.5,52.5C 68.5,52.1667 68.5,51.8333 68.5,51.5C 71.0838,50.9517 72.0838,49.285 71.5,46.5 Z"></path></g><g><path style="opacity:1" fill="#497b9e" d="M 68.5,44.5 C 69.1667,44.5 69.5,44.8333 69.5,45.5C 51.4969,45.3334 33.4969,45.5001 15.5,46C 14.1667,47.6667 14.1667,49.3333 15.5,51C 33.1635,51.4999 50.8302,51.6666 68.5,51.5C 68.5,51.8333 68.5,52.1667 68.5,52.5C 50.4969,52.6666 32.4969,52.4999 14.5,52C 13.1667,49.6667 13.1667,47.3333 14.5,45C 32.4969,44.5001 50.4969,44.3334 68.5,44.5 Z"></path></g><g><path style="opacity:1" fill="#9cbdd2" d="M 15.5,43.5 C 33.3412,43.1699 51.0079,43.5033 68.5,44.5C 50.4969,44.3334 32.4969,44.5001 14.5,45C 13.1667,47.3333 13.1667,49.6667 14.5,52C 32.4969,52.4999 50.4969,52.6666 68.5,52.5C 51.0079,53.4967 33.3412,53.8301 15.5,53.5C 11.4293,51.5647 10.5959,48.5647 13,44.5C 13.6708,43.7476 14.5041,43.4142 15.5,43.5 Z"></path></g><g><path style="opacity:0.18" fill="#c6dee8" d="M 68.5,52.5 C 69.1667,52.5 69.8333,52.5 70.5,52.5C 70.3893,53.1174 70.056,53.6174 69.5,54C 51.3286,54.8287 33.3286,54.662 15.5,53.5C 33.3412,53.8301 51.0079,53.4967 68.5,52.5 Z"></path></g><g><path style="opacity:1" fill="#7ea1bb" d="M 82.5,58.5 C 82.5,58.8333 82.5,59.1667 82.5,59.5C 64.1667,59.5 45.8333,59.5 27.5,59.5C 27.5,59.1667 27.5,58.8333 27.5,58.5C 45.8333,57.1667 64.1667,57.1667 82.5,58.5 Z"></path></g><g><path style="opacity:0.137" fill="#b4cad7" d="M 27.5,58.5 C 27.5,58.8333 27.5,59.1667 27.5,59.5C 24.8333,61.5 24.8333,63.5 27.5,65.5C 45.662,66.6621 63.9954,66.8288 82.5,66C 85.1339,63.7067 85.1339,61.54 82.5,59.5C 82.5,59.1667 82.5,58.8333 82.5,58.5C 84.8184,58.8184 86.1517,60.1517 86.5,62.5C 85.7814,64.7277 84.448,66.561 82.5,68C 64.1667,68.6667 45.8333,68.6667 27.5,68C 24.066,65.6991 23.2327,62.8657 25,59.5C 25.6708,58.7476 26.5041,58.4142 27.5,58.5 Z"></path></g><g><path style="opacity:1" fill="#1b4a70" d="M 27.5,59.5 C 45.8333,59.5 64.1667,59.5 82.5,59.5C 85.1339,61.54 85.1339,63.7067 82.5,66C 63.9954,66.8288 45.662,66.6621 27.5,65.5C 24.8333,63.5 24.8333,61.5 27.5,59.5 Z"></path></g><g><path style="opacity:1" fill="#023d6e" d="M 27.5,65.5 C 27.33,64.1779 27.6634,63.0113 28.5,62C 45.5,61.3333 62.5,61.3333 79.5,62C 80.3366,63.0113 80.67,64.1779 80.5,65.5C 62.8333,65.5 45.1667,65.5 27.5,65.5 Z"></path></g><g><path style="opacity:0.277" fill="#bed7e2" d="M 69.5,72.5 C 51.3256,72.1699 33.3256,72.5032 15.5,73.5C 14.8333,73.5 14.5,73.8333 14.5,74.5C 13.3871,75.9464 13.2204,77.6131 14,79.5C 14.6708,80.2524 15.5041,80.5858 16.5,80.5C 16.5,80.8333 16.5,81.1667 16.5,81.5C 12.032,81.2517 10.532,78.9183 12,74.5C 12.5,73.3333 13.3333,72.5 14.5,72C 33.0046,71.1712 51.338,71.3379 69.5,72.5 Z"></path></g><g><path style="opacity:1" fill="#2a5374" d="M 14.5,74.5 C 14.5,73.8333 14.8333,73.5 15.5,73.5C 33.8364,73.3334 52.1697,73.5001 70.5,74C 71.807,75.9435 71.807,77.7768 70.5,79.5C 70.7135,77.8561 70.3802,76.3561 69.5,75C 51.1697,74.5001 32.8364,74.3334 14.5,74.5 Z"></path></g><g><path style="opacity:1" fill="#053e6e" d="M 14.5,74.5 C 32.8364,74.3334 51.1697,74.5001 69.5,75C 70.3802,76.3561 70.7135,77.8561 70.5,79.5C 70.1667,79.5 69.8333,79.5 69.5,79.5C 51.4969,79.6666 33.4969,79.4999 15.5,79C 14.6198,77.6439 14.2865,76.1439 14.5,74.5 Z"></path></g><g><path style="opacity:1" fill="#2c5f88" d="M 14.5,74.5 C 14.2865,76.1439 14.6198,77.6439 15.5,79C 33.4969,79.4999 51.4969,79.6666 69.5,79.5C 52.0079,80.4967 34.3412,80.8301 16.5,80.5C 15.5041,80.5858 14.6708,80.2524 14,79.5C 13.2204,77.6131 13.3871,75.9464 14.5,74.5 Z"></path></g><g><path style="opacity:1" fill="#91acc4" d="M 15.5,73.5 C 33.3256,72.5032 51.3256,72.1699 69.5,72.5C 73.1461,73.4615 74.3128,75.7949 73,79.5C 71.5093,81.0037 69.676,81.8371 67.5,82C 50.3283,82.8284 33.3283,82.6617 16.5,81.5C 16.5,81.1667 16.5,80.8333 16.5,80.5C 34.3412,80.8301 52.0079,80.4967 69.5,79.5C 69.8333,79.5 70.1667,79.5 70.5,79.5C 71.807,77.7768 71.807,75.9435 70.5,74C 52.1697,73.5001 33.8364,73.3334 15.5,73.5 Z"></path></g><g><path style="opacity:1" fill="#47a379" d="M 128.5,32.5 C 136.214,45.7188 138.714,60.0521 136,75.5C 134.126,82.9104 130.959,89.5771 126.5,95.5C 126.915,93.2532 127.582,91.0865 128.5,89C 128.514,86.1978 127.181,84.3645 124.5,83.5C 125.582,83.2514 126.915,83.0848 128.5,83C 130.223,82.4768 131.556,81.4768 132.5,80C 133.428,73.3109 134.428,66.6442 135.5,60C 135.828,56.4633 134.995,53.2966 133,50.5C 131.224,44.58 129.724,38.58 128.5,32.5 Z"></path></g><g><path style="opacity:1" fill="#003e73" d="M 0.5,89.5 C 18.5232,89.2339 36.5232,89.7339 54.5,91C 36.6534,92.4857 18.6534,92.9857 0.5,92.5C 0.5,91.5 0.5,90.5 0.5,89.5 Z"></path></g><g><path style="opacity:1" fill="#61c4a9" d="M 105.5,44.5 C 106.794,45.2899 107.961,46.2899 109,47.5C 110.79,57.1435 110.957,66.8101 109.5,76.5C 108.301,79.5625 106.801,82.5625 105,85.5C 102.628,87.7032 100.461,90.0365 98.5,92.5C 97.8333,92.5 97.1667,92.5 96.5,92.5C 109.87,78.626 112.87,62.626 105.5,44.5 Z"></path></g><g><path style="opacity:1" fill="#184871" d="M 55.5,93.5 C 36.9924,93.8302 18.6591,93.4968 0.5,92.5C 18.6534,92.9857 36.6534,92.4857 54.5,91C 36.5232,89.7339 18.5232,89.2339 0.5,89.5C 0.5,89.1667 0.5,88.8333 0.5,88.5C 18.662,87.3379 36.9954,87.1712 55.5,88C 56.807,89.9435 56.807,91.7768 55.5,93.5 Z"></path></g><g><path style="opacity:1" fill="#189e76" d="M 109.5,76.5 C 110.722,80.1692 109.722,83.1692 106.5,85.5C 107.5,86.3333 108.5,87.1667 109.5,88C 108.887,90.1474 108.221,92.314 107.5,94.5C 106.575,93.3595 105.741,93.3595 105,94.5C 104.793,98.0894 104.293,101.589 103.5,105C 104.126,105.75 104.626,106.584 105,107.5C 105.604,105.314 106.77,105.148 108.5,107C 107.12,108.324 106.786,109.657 107.5,111C 109.107,110.981 110.774,110.815 112.5,110.5C 110.45,112.547 108.117,114.214 105.5,115.5C 102.423,115.347 99.5895,116.014 97,117.5C 94.9792,117.327 93.1459,116.66 91.5,115.5C 92.376,114.749 93.376,114.249 94.5,114C 92.9837,112.103 92.317,109.936 92.5,107.5C 96.35,107.299 97.35,105.466 95.5,102C 94.552,101.517 93.552,101.351 92.5,101.5C 92.3573,99.7376 92.6906,98.0709 93.5,96.5C 95.5862,95.5113 97.2529,94.178 98.5,92.5C 100.461,90.0365 102.628,87.7032 105,85.5C 106.801,82.5625 108.301,79.5625 109.5,76.5 Z"></path></g><g><path style="opacity:1" fill="#20527b" d="M -0.5,88.5 C -0.166667,88.5 0.166667,88.5 0.5,88.5C 0.5,88.8333 0.5,89.1667 0.5,89.5C 0.5,90.5 0.5,91.5 0.5,92.5C 18.6591,93.4968 36.9924,93.8302 55.5,93.5C 37.0075,94.4969 18.3408,94.8302 -0.5,94.5C -0.5,92.5 -0.5,90.5 -0.5,88.5 Z"></path></g><g><path style="opacity:1" fill="#a3bccb" d="M -0.5,96.5 C -0.5,95.8333 -0.5,95.1667 -0.5,94.5C 18.3408,94.8302 37.0075,94.4969 55.5,93.5C 56.807,91.7768 56.807,89.9435 55.5,88C 36.9954,87.1712 18.662,87.3379 0.5,88.5C 0.166667,88.5 -0.166667,88.5 -0.5,88.5C -0.5,87.8333 -0.5,87.1667 -0.5,86.5C 18.0932,85.3474 36.7599,85.1807 55.5,86C 59.0917,88.9707 59.4251,92.304 56.5,96C 53.2423,96.2117 50.0757,96.7117 47,97.5C 31.3103,96.6939 15.477,96.3605 -0.5,96.5 Z"></path></g><g><path style="opacity:0.247" fill="#c3eee7" d="M 92.5,94.5 C 87.6765,98.5609 82.0098,100.894 75.5,101.5C 74.1667,101.5 72.8333,101.5 71.5,101.5C 78.7741,100.186 85.7741,97.8531 92.5,94.5 Z"></path></g><g><path style="opacity:0.957" fill="#b0e2de" d="M 71.5,101.5 C 72.8333,101.5 74.1667,101.5 75.5,101.5C 75.5,101.833 75.5,102.167 75.5,102.5C 60.1667,102.5 44.8333,102.5 29.5,102.5C 29.5,102.167 29.5,101.833 29.5,101.5C 43.3566,101.478 57.3566,101.478 71.5,101.5 Z"></path></g><g><path style="opacity:1" fill="#04988c" d="M 64.5,103.5 C 64.5,104.167 64.1667,104.5 63.5,104.5C 59.2968,104.076 55.2968,104.576 51.5,106C 52.1667,106.667 52.8333,107.333 53.5,108C 52.8333,110.667 52.1667,113.333 51.5,116C 52.6872,117.019 53.6872,118.186 54.5,119.5C 49.5329,120.329 44.5329,120.829 39.5,121C 48.8274,121.5 58.1607,121.666 67.5,121.5C 67.5,121.833 67.5,122.167 67.5,122.5C 54.8333,122.5 42.1667,122.5 29.5,122.5C 29.5,116.167 29.5,109.833 29.5,103.5C 41.1667,103.5 52.8333,103.5 64.5,103.5 Z"></path></g><g><path style="opacity:1" fill="#049886" d="M 63.5,104.5 C 66.5291,106.075 69.8625,107.241 73.5,108C 72.6425,111.76 72.6425,115.594 73.5,119.5C 71.1137,119.259 69.1137,119.925 67.5,121.5C 58.1607,121.666 48.8274,121.5 39.5,121C 44.5329,120.829 49.5329,120.329 54.5,119.5C 53.6872,118.186 52.6872,117.019 51.5,116C 52.1667,113.333 52.8333,110.667 53.5,108C 52.8333,107.333 52.1667,106.667 51.5,106C 55.2968,104.576 59.2968,104.076 63.5,104.5 Z"></path></g><g><path style="opacity:1" fill="#c9fcfc" d="M 29.5,101.5 C 29.5,101.833 29.5,102.167 29.5,102.5C 28.5088,109.313 28.1755,116.313 28.5,123.5C 28.1667,123.5 27.8333,123.5 27.5,123.5C 26.3742,116.914 26.2075,110.247 27,103.5C 27.4169,102.244 28.2502,101.577 29.5,101.5 Z"></path></g><g><path style="opacity:1" fill="#179c7f" d="M 96.5,92.5 C 97.1667,92.5 97.8333,92.5 98.5,92.5C 97.2529,94.178 95.5862,95.5113 93.5,96.5C 92.6906,98.0709 92.3573,99.7376 92.5,101.5C 93.552,101.351 94.552,101.517 95.5,102C 97.35,105.466 96.35,107.299 92.5,107.5C 92.317,109.936 92.9837,112.103 94.5,114C 93.376,114.249 92.376,114.749 91.5,115.5C 93.1459,116.66 94.9792,117.327 97,117.5C 99.5895,116.014 102.423,115.347 105.5,115.5C 104.833,116.5 104.167,117.5 103.5,118.5C 97.6546,120.416 91.6546,121.749 85.5,122.5C 79.5,122.5 73.5,122.5 67.5,122.5C 67.5,122.167 67.5,121.833 67.5,121.5C 69.1137,119.925 71.1137,119.259 73.5,119.5C 72.6425,115.594 72.6425,111.76 73.5,108C 69.8625,107.241 66.5291,106.075 63.5,104.5C 64.1667,104.5 64.5,104.167 64.5,103.5C 68.3714,103.815 72.0381,103.482 75.5,102.5C 75.5,102.167 75.5,101.833 75.5,101.5C 82.0098,100.894 87.6765,98.5609 92.5,94.5C 94.153,94.3404 95.4863,93.6737 96.5,92.5 Z"></path></g><g><path style="opacity:0.988" fill="#aed3c4" d="M 127.5,28.5 C 128.458,28.9528 129.292,29.6195 130,30.5C 132.81,36.4448 135.31,42.4448 137.5,48.5C 137.5,58.5 137.5,68.5 137.5,78.5C 132.754,92.814 124.42,104.647 112.5,114C 109.757,116.038 106.757,117.538 103.5,118.5C 104.167,117.5 104.833,116.5 105.5,115.5C 108.117,114.214 110.45,112.547 112.5,110.5C 117.5,106.833 121.833,102.5 125.5,97.5C 125.833,96.8333 126.167,96.1667 126.5,95.5C 130.959,89.5771 134.126,82.9104 136,75.5C 138.714,60.0521 136.214,45.7188 128.5,32.5C 128.167,31.1667 127.833,29.8333 127.5,28.5 Z"></path></g><g><path style="opacity:0.294" fill="#b8e0d7" d="M 103.5,118.5 C 100.628,120.351 97.6276,122.017 94.5,123.5C 91.5,123.5 88.5,123.5 85.5,123.5C 85.5,123.167 85.5,122.833 85.5,122.5C 91.6546,121.749 97.6546,120.416 103.5,118.5 Z"></path></g><g><path style="opacity:1" fill="#49b4ab" d="M 29.5,102.5 C 44.8333,102.5 60.1667,102.5 75.5,102.5C 72.0381,103.482 68.3714,103.815 64.5,103.5C 52.8333,103.5 41.1667,103.5 29.5,103.5C 29.5,109.833 29.5,116.167 29.5,122.5C 42.1667,122.5 54.8333,122.5 67.5,122.5C 73.5,122.5 79.5,122.5 85.5,122.5C 85.5,122.833 85.5,123.167 85.5,123.5C 66.5,123.5 47.5,123.5 28.5,123.5C 28.1755,116.313 28.5088,109.313 29.5,102.5 Z"></path></g></svg>