<svg xmlns="http://www.w3.org/2000/svg" xmlns:xlink="http://www.w3.org/1999/xlink" width="304px" height="150px" style="shape-rendering:geometricPrecision; text-rendering:geometricPrecision; image-rendering:optimizeQuality; fill-rule:evenodd; clip-rule:evenodd"><g><path style="opacity:0.993" fill="#fefcfa" d="M 45.5,6.5 C 45.6107,7.11742 45.944,7.61742 46.5,8C 57.8854,9.43843 69.2187,9.60509 80.5,8.5C 92.5046,8.33346 104.505,8.50013 116.5,9C 125.465,10.0586 133.465,13.2253 140.5,18.5C 144.112,22.2871 147.612,26.2871 151,30.5C 152.039,29.7562 152.539,28.7562 152.5,27.5C 156.147,24.1887 159.813,20.8554 163.5,17.5C 165.253,15.7775 167.253,14.2775 169.5,13C 174.754,11.3532 180.087,10.0199 185.5,9C 197.162,8.50014 208.829,8.33347 220.5,8.5C 231.784,9.65544 243.117,9.48877 254.5,8C 255.056,7.61742 255.389,7.11742 255.5,6.5C 265.356,4.54313 275.356,3.54313 285.5,3.5C 285.414,4.4959 285.748,5.32924 286.5,6C 289.284,6.8917 291.95,8.05837 294.5,9.5C 296.055,12.6617 298.055,15.3284 300.5,17.5C 300.961,26.314 300.294,34.9807 298.5,43.5C 297.503,43.4701 296.836,43.9701 296.5,45C 294.619,50.5857 292.619,56.0857 290.5,61.5C 290.672,62.4916 290.338,63.1583 289.5,63.5C 287.738,64.2623 286.738,65.5956 286.5,67.5C 286.5,68.1667 286.167,68.5 285.5,68.5C 284.094,68.9731 283.427,69.9731 283.5,71.5C 279.167,75.1667 275.167,79.1667 271.5,83.5C 269.973,83.427 268.973,84.0937 268.5,85.5C 268.5,86.1667 268.167,86.5 267.5,86.5C 264.817,87.8765 262.483,89.5432 260.5,91.5C 254.837,93.6035 249.504,96.2701 244.5,99.5C 244.158,100.338 243.492,100.672 242.5,100.5C 239.918,100.025 237.918,100.692 236.5,102.5C 235.609,103.11 234.609,103.443 233.5,103.5C 226.542,104.589 219.542,105.589 212.5,106.5C 210.667,106.585 209.334,107.252 208.5,108.5C 205.167,108.5 201.833,108.5 198.5,108.5C 198.311,104.963 198.977,101.63 200.5,98.5C 201.892,96.7274 203.059,94.7274 204,92.5C 207.187,89.3884 210.354,86.3884 213.5,83.5C 216.877,83.0405 220.211,82.3739 223.5,81.5C 229.22,81.0436 234.22,79.0436 238.5,75.5C 240.336,73.412 242.669,72.0787 245.5,71.5C 253.553,67.9719 260.387,62.6386 266,55.5C 266.791,54.255 267.291,52.9217 267.5,51.5C 272.23,47.7028 274.563,42.7028 274.5,36.5C 274.629,34.7839 274.962,33.1172 275.5,31.5C 275.5,30.5 275.5,29.5 275.5,28.5C 269.455,28.4283 263.455,28.9283 257.5,30C 256.584,30.2784 255.918,30.7784 255.5,31.5C 243.185,32.3154 230.852,32.6488 218.5,32.5C 214.18,31.8342 209.68,31.5009 205,31.5C 200.114,31.5073 195.614,32.1739 191.5,33.5C 189.236,34.2186 186.903,34.552 184.5,34.5C 184.565,34.0618 184.399,33.7284 184,33.5C 183.005,34.0659 182.172,34.7326 181.5,35.5C 180.791,36.404 179.791,36.7373 178.5,36.5C 176.5,36.5 175.5,37.5 175.5,39.5C 174.167,39.5 173.5,40.1667 173.5,41.5C 172.154,43.5368 170.82,45.5368 169.5,47.5C 168.094,47.9731 167.427,48.9731 167.5,50.5C 167.371,52.2161 167.038,53.8828 166.5,55.5C 164.278,55.5587 163.278,56.7253 163.5,59C 164.007,63.234 165.34,67.0674 167.5,70.5C 170.269,75.8012 172.269,81.4678 173.5,87.5C 174.194,93.2728 175.36,98.9395 177,104.5C 177.236,106.119 178.069,107.119 179.5,107.5C 182.847,120.255 185.18,133.255 186.5,146.5C 184.5,146.5 182.5,146.5 180.5,146.5C 180.083,145.876 179.416,145.543 178.5,145.5C 177.287,145.747 176.62,146.414 176.5,147.5C 171.833,147.5 167.167,147.5 162.5,147.5C 162.5,146.5 162.5,145.5 162.5,144.5C 162.412,139.464 161.912,134.464 161,129.5C 160.878,127.563 160.045,126.23 158.5,125.5C 157.348,121.893 156.348,118.227 155.5,114.5C 156.108,111.938 155.942,109.271 155,106.5C 154.764,104.881 153.931,103.881 152.5,103.5C 151.766,102.292 151.433,100.959 151.5,99.5C 151.938,99.5654 152.272,99.3988 152.5,99C 151.664,94.8321 150.664,94.6654 149.5,98.5C 149.624,99.1067 149.957,99.44 150.5,99.5C 150.233,101.965 149.566,104.299 148.5,106.5C 147.069,106.881 146.236,107.881 146,109.5C 145.689,111.556 145.189,113.556 144.5,115.5C 144.624,116.107 144.957,116.44 145.5,116.5C 145.44,119.341 144.774,122.007 143.5,124.5C 140.548,130.592 139.214,137.259 139.5,144.5C 139.5,145.5 139.5,146.5 139.5,147.5C 131.506,146.773 123.506,146.107 115.5,145.5C 116.354,139.188 117.021,132.855 117.5,126.5C 120.568,124.506 121.235,121.839 119.5,118.5C 120.188,114.416 121.188,110.416 122.5,106.5C 123.586,106.38 124.253,105.713 124.5,104.5C 125.923,99.9038 126.923,95.2372 127.5,90.5C 129.637,82.7582 131.97,75.0915 134.5,67.5C 139.836,61.394 139.502,55.394 133.5,49.5C 132.326,48.4863 131.66,47.153 131.5,45.5C 131.573,43.9731 130.906,42.9731 129.5,42.5C 128.5,42.1667 127.833,41.5 127.5,40.5C 127.5,38.5 126.5,37.5 124.5,37.5C 122.847,37.3404 121.514,36.6737 120.5,35.5C 119.828,34.7326 118.995,34.0659 118,33.5C 117.601,33.7284 117.435,34.0618 117.5,34.5C 115.097,34.552 112.764,34.2186 110.5,33.5C 106.386,32.1739 101.886,31.5073 97,31.5C 92.3205,31.5009 87.8205,31.8342 83.5,32.5C 70.8152,32.6549 58.1486,32.3216 45.5,31.5C 39.4739,29.4505 33.1405,28.4505 26.5,28.5C 26.5,29.5 26.5,30.5 26.5,31.5C 26.5,32.1667 26.5,32.8333 26.5,33.5C 26.3868,40.2617 28.7201,45.9284 33.5,50.5C 33.7376,52.4044 34.7376,53.7377 36.5,54.5C 42.027,62.5249 49.027,69.0249 57.5,74C 58.7932,74.49 60.1266,74.6567 61.5,74.5C 69.3499,77.8945 77.3499,80.8945 85.5,83.5C 92.0529,86.0536 97.0529,90.387 100.5,96.5C 102.721,100.168 103.721,104.168 103.5,108.5C 100.167,108.5 96.8333,108.5 93.5,108.5C 93.0825,107.778 92.4158,107.278 91.5,107C 87.8484,106.501 84.1817,106.335 80.5,106.5C 72.3106,105.541 64.644,103.208 57.5,99.5C 55.7196,97.5827 53.7196,96.9161 51.5,97.5C 49.7039,95.5832 47.7039,93.7499 45.5,92C 44.2068,91.51 42.8734,91.3433 41.5,91.5C 40.9517,88.9162 39.285,87.9162 36.5,88.5C 36.0269,87.0937 35.0269,86.427 33.5,86.5C 33.5,86.1667 33.5,85.8333 33.5,85.5C 33.0269,84.0937 32.0269,83.427 30.5,83.5C 29.0892,81.086 27.0892,79.4194 24.5,78.5C 21.8181,74.4934 18.8181,70.8267 15.5,67.5C 15.2624,65.5956 14.2624,64.2623 12.5,63.5C 12.573,61.9731 11.9063,60.9731 10.5,60.5C 8.35648,57.878 7.02315,54.878 6.5,51.5C 6.93822,51.5654 7.27155,51.3988 7.5,51C 6.68388,49.077 6.01721,47.077 5.5,45C 5.16389,43.9701 4.49722,43.4701 3.5,43.5C 2.0925,39.317 1.42584,34.9836 1.5,30.5C 2.83333,26.8333 2.83333,23.1667 1.5,19.5C 1.36596,17.7085 1.69929,16.0418 2.5,14.5C 3.90632,14.0269 4.57298,13.0269 4.5,11.5C 6.16667,10.5 7.5,9.16667 8.5,7.5C 12.6685,4.28402 17.5018,2.95068 23,3.5C 30.5477,4.43303 38.0477,5.43303 45.5,6.5 Z"></path></g><g><path style="opacity:0.231" fill="#fa9441" d="M 8.5,7.5 C 7.5,9.16667 6.16667,10.5 4.5,11.5C 4.83333,9.16667 6.16667,7.83333 8.5,7.5 Z"></path></g><g><path style="opacity:0.851" fill="#fcddc5" d="M 45.5,6.5 C 57.3401,6.82427 69.0068,7.49094 80.5,8.5C 69.2187,9.60509 57.8854,9.43843 46.5,8C 45.944,7.61742 45.6107,7.11742 45.5,6.5 Z"></path></g><g><path style="opacity:0.851" fill="#fbe0ca" d="M 255.5,6.5 C 255.389,7.11742 255.056,7.61742 254.5,8C 243.117,9.48877 231.784,9.65544 220.5,8.5C 231.996,7.53252 243.662,6.86585 255.5,6.5 Z"></path></g><g><path style="opacity:0.255" fill="#fba260" d="M 4.5,11.5 C 4.57298,13.0269 3.90632,14.0269 2.5,14.5C 2.42702,12.9731 3.09368,11.9731 4.5,11.5 Z"></path></g><g><path style="opacity:0.635" fill="#ffba8b" d="M 285.5,3.5 C 293.73,4.77032 298.73,9.43699 300.5,17.5C 298.055,15.3284 296.055,12.6617 294.5,9.5C 291.95,8.05837 289.284,6.8917 286.5,6C 285.748,5.32924 285.414,4.4959 285.5,3.5 Z"></path></g><g><path style="opacity:0.537" fill="#fcb466" d="M 140.5,18.5 C 144.789,20.9544 148.289,24.2877 151,28.5C 151.383,27.944 151.883,27.6107 152.5,27.5C 152.539,28.7562 152.039,29.7562 151,30.5C 147.612,26.2871 144.112,22.2871 140.5,18.5 Z"></path></g><g><path style="opacity:0.192" fill="#ecb184" d="M 163.5,17.5 C 159.813,20.8554 156.147,24.1887 152.5,27.5C 154.892,22.7749 158.559,19.4416 163.5,17.5 Z"></path></g><g><path style="opacity:0.792" fill="#fbc799" d="M 1.5,19.5 C 2.83333,23.1667 2.83333,26.8333 1.5,30.5C 0.166667,26.8333 0.166667,23.1667 1.5,19.5 Z"></path></g><g><path style="opacity:0.792" fill="#fed1a7" d="M 45.5,31.5 C 40.0549,31.6359 34.7216,30.9692 29.5,29.5C 28.4822,30.1925 27.4822,30.8592 26.5,31.5C 26.5,30.5 26.5,29.5 26.5,28.5C 33.1405,28.4505 39.4739,29.4505 45.5,31.5 Z"></path></g><g><path style="opacity:0.82" fill="#fecda1" d="M 275.5,31.5 C 274.518,30.8592 273.518,30.1925 272.5,29.5C 266.947,31.0222 261.28,31.6888 255.5,31.5C 255.918,30.7784 256.584,30.2784 257.5,30C 263.455,28.9283 269.455,28.4283 275.5,28.5C 275.5,29.5 275.5,30.5 275.5,31.5 Z"></path></g><g><path style="opacity:0.824" fill="#ffe6c3" d="M 110.5,33.5 C 101.318,33.8266 92.3178,33.4933 83.5,32.5C 87.8205,31.8342 92.3205,31.5009 97,31.5C 101.886,31.5073 106.386,32.1739 110.5,33.5 Z"></path></g><g><path style="opacity:0.122" fill="#ffe3be" d="M 218.5,32.5 C 209.682,33.4933 200.682,33.8266 191.5,33.5C 195.614,32.1739 200.114,31.5073 205,31.5C 209.68,31.5009 214.18,31.8342 218.5,32.5 Z"></path></g><g><path style="opacity:0.416" fill="#f6a155" d="M 120.5,35.5 C 119.209,35.7373 118.209,35.404 117.5,34.5C 117.435,34.0618 117.601,33.7284 118,33.5C 118.995,34.0659 119.828,34.7326 120.5,35.5 Z"></path></g><g><path style="opacity:0.012" fill="#fead5f" d="M 184.5,34.5 C 183.791,35.404 182.791,35.7373 181.5,35.5C 182.172,34.7326 183.005,34.0659 184,33.5C 184.399,33.7284 184.565,34.0618 184.5,34.5 Z"></path></g><g><path style="opacity:0.475" fill="#fda867" d="M 124.5,37.5 C 126.5,37.5 127.5,38.5 127.5,40.5C 126.167,39.8333 125.167,38.8333 124.5,37.5 Z"></path></g><g><path style="opacity:0.102" fill="#ffac61" d="M 178.5,36.5 C 177.833,37.8333 176.833,38.8333 175.5,39.5C 175.5,37.5 176.5,36.5 178.5,36.5 Z"></path></g><g><path style="opacity:0.612" fill="#f1b285" d="M 274.5,36.5 C 274.563,42.7028 272.23,47.7028 267.5,51.5C 270.036,46.5419 272.369,41.5419 274.5,36.5 Z"></path></g><g><path style="opacity:0.114" fill="#ff953d" d="M 175.5,39.5 C 175.167,40.5 174.5,41.1667 173.5,41.5C 173.5,40.1667 174.167,39.5 175.5,39.5 Z"></path></g><g><path style="opacity:0.345" fill="#ffbe93" d="M 26.5,33.5 C 28.6301,39.2171 30.9635,44.8837 33.5,50.5C 28.7201,45.9284 26.3868,40.2617 26.5,33.5 Z"></path></g><g><path style="opacity:0.118" fill="#f79a58" d="M 129.5,42.5 C 130.906,42.9731 131.573,43.9731 131.5,45.5C 130.094,45.0269 129.427,44.0269 129.5,42.5 Z"></path></g><g><path style="opacity:0.282" fill="#ffbd87" d="M 3.5,43.5 C 4.49722,43.4701 5.16389,43.9701 5.5,45C 6.01721,47.077 6.68388,49.077 7.5,51C 7.27155,51.3988 6.93822,51.5654 6.5,51.5C 4.3455,49.3826 3.3455,46.716 3.5,43.5 Z"></path></g><g><path style="opacity:0.031" fill="#ff9b52" d="M 169.5,47.5 C 169.573,49.0269 168.906,50.0269 167.5,50.5C 167.427,48.9731 168.094,47.9731 169.5,47.5 Z"></path></g><g><path style="opacity:0.357" fill="#fc8b4e" d="M 33.5,50.5 C 35.2624,51.2623 36.2624,52.5956 36.5,54.5C 34.7376,53.7377 33.7376,52.4044 33.5,50.5 Z"></path></g><g><path style="opacity:0.376" fill="#f89f5e" d="M 36.5,54.5 C 43.9602,62.3792 52.2935,69.0459 61.5,74.5C 60.1266,74.6567 58.7932,74.49 57.5,74C 49.027,69.0249 42.027,62.5249 36.5,54.5 Z"></path></g><g><path style="opacity:0.251" fill="#ffc792" d="M 298.5,43.5 C 296.925,49.9828 294.259,55.9828 290.5,61.5C 292.619,56.0857 294.619,50.5857 296.5,45C 296.836,43.9701 297.503,43.4701 298.5,43.5 Z"></path></g><g><path style="opacity:0.302" fill="#ffba7f" d="M 166.5,55.5 C 166.179,56.8175 165.846,58.1508 165.5,59.5C 166.648,63.0894 167.315,66.756 167.5,70.5C 165.34,67.0674 164.007,63.234 163.5,59C 163.278,56.7253 164.278,55.5587 166.5,55.5 Z"></path></g><g><path style="opacity:0.627" fill="#f8bc90" d="M 133.5,49.5 C 139.502,55.394 139.836,61.394 134.5,67.5C 134.955,64.7965 135.622,62.1298 136.5,59.5C 135.494,56.149 134.494,52.8156 133.5,49.5 Z"></path></g><g><path style="opacity:0.067" fill="#ff974e" d="M 10.5,60.5 C 11.9063,60.9731 12.573,61.9731 12.5,63.5C 11.0937,63.0269 10.427,62.0269 10.5,60.5 Z"></path></g><g><path style="opacity:0.027" fill="#fe954a" d="M 12.5,63.5 C 14.2624,64.2623 15.2624,65.5956 15.5,67.5C 13.7376,66.7377 12.7376,65.4044 12.5,63.5 Z"></path></g><g><path style="opacity:0.024" fill="#ff8b37" d="M 289.5,63.5 C 289.262,65.4044 288.262,66.7377 286.5,67.5C 286.738,65.5956 287.738,64.2623 289.5,63.5 Z"></path></g><g><path style="opacity:0.392" fill="#ee9f65" d="M 267.5,51.5 C 267.291,52.9217 266.791,54.255 266,55.5C 260.387,62.6386 253.553,67.9719 245.5,71.5C 253.757,65.9129 261.09,59.2462 267.5,51.5 Z"></path></g><g><path style="opacity:0.235" fill="#fc8a36" d="M 285.5,68.5 C 285.573,70.0269 284.906,71.0269 283.5,71.5C 283.427,69.9731 284.094,68.9731 285.5,68.5 Z"></path></g><g><path style="opacity:0.153" fill="#ff9e57" d="M 15.5,67.5 C 18.8181,70.8267 21.8181,74.4934 24.5,78.5C 20.48,75.7998 17.48,72.1331 15.5,67.5 Z"></path></g><g><path style="opacity:0.263" fill="#ffaf6f" d="M 24.5,78.5 C 27.0892,79.4194 29.0892,81.086 30.5,83.5C 27.9108,82.5806 25.9108,80.914 24.5,78.5 Z"></path></g><g><path style="opacity:0.694" fill="#f6caad" d="M 238.5,75.5 C 234.22,79.0436 229.22,81.0436 223.5,81.5C 228.32,79.2642 233.32,77.2642 238.5,75.5 Z"></path></g><g><path style="opacity:0.031" fill="#ffac5d" d="M 283.5,71.5 C 280.5,76.5 276.5,80.5 271.5,83.5C 275.167,79.1667 279.167,75.1667 283.5,71.5 Z"></path></g><g><path style="opacity:0.643" fill="#ffa15e" d="M 30.5,83.5 C 32.0269,83.427 33.0269,84.0937 33.5,85.5C 31.9731,85.573 30.9731,84.9063 30.5,83.5 Z"></path></g><g><path style="opacity:0.224" fill="#ff8d3a" d="M 271.5,83.5 C 271.027,84.9063 270.027,85.573 268.5,85.5C 268.973,84.0937 269.973,83.427 271.5,83.5 Z"></path></g><g><path style="opacity:0.247" fill="#fb771e" d="M 33.5,86.5 C 35.0269,86.427 36.0269,87.0937 36.5,88.5C 34.9731,88.573 33.9731,87.9063 33.5,86.5 Z"></path></g><g><path style="opacity:0.027" fill="#fab270" d="M 85.5,83.5 C 88.5641,83.1437 91.2307,83.9771 93.5,86C 97.348,88.6474 99.6814,92.1474 100.5,96.5C 97.0529,90.387 92.0529,86.0536 85.5,83.5 Z"></path></g><g><path style="opacity:0.031" fill="#ff9046" d="M 267.5,86.5 C 266.052,89.264 263.719,90.9307 260.5,91.5C 262.483,89.5432 264.817,87.8765 267.5,86.5 Z"></path></g><g><path style="opacity:0.729" fill="#ffc294" d="M 36.5,88.5 C 39.285,87.9162 40.9517,88.9162 41.5,91.5C 39.326,91.2503 37.6594,90.2503 36.5,88.5 Z"></path></g><g><path style="opacity:0.498" fill="#f7caa6" d="M 127.5,90.5 C 126.923,95.2372 125.923,99.9038 124.5,104.5C 124.253,105.713 123.586,106.38 122.5,106.5C 123.393,100.828 125.059,95.4943 127.5,90.5 Z"></path></g><g><path style="opacity:0.137" fill="#ffbd8a" d="M 41.5,91.5 C 42.8734,91.3433 44.2068,91.51 45.5,92C 47.7039,93.7499 49.7039,95.5832 51.5,97.5C 47.4945,96.5023 44.1612,94.5023 41.5,91.5 Z"></path></g><g><path style="opacity:0.133" fill="#ffb271" d="M 260.5,91.5 C 256.032,95.7339 250.699,98.4006 244.5,99.5C 249.504,96.2701 254.837,93.6035 260.5,91.5 Z"></path></g><g><path style="opacity:0.471" fill="#ffbf7e" d="M 57.5,99.5 C 55.1016,99.7406 53.1016,99.0739 51.5,97.5C 53.7196,96.9161 55.7196,97.5827 57.5,99.5 Z"></path></g><g><path style="opacity:0.631" fill="#efa97c" d="M 213.5,83.5 C 210.354,86.3884 207.187,89.3884 204,92.5C 203.059,94.7274 201.892,96.7274 200.5,98.5C 201.806,90.8949 206.139,85.8949 213.5,83.5 Z"></path></g><g><path style="opacity:0.373" fill="#f49c58" d="M 151.5,99.5 C 151.167,99.5 150.833,99.5 150.5,99.5C 149.957,99.44 149.624,99.1067 149.5,98.5C 150.664,94.6654 151.664,94.8321 152.5,99C 152.272,99.3988 151.938,99.5654 151.5,99.5 Z"></path></g><g><path style="opacity:0.325" fill="#ffd4ad" d="M 173.5,87.5 C 176.475,93.7665 178.475,100.433 179.5,107.5C 178.069,107.119 177.236,106.119 177,104.5C 175.36,98.9395 174.194,93.2728 173.5,87.5 Z"></path></g><g><path style="opacity:0.922" fill="#ffc898" d="M 242.5,100.5 C 240.786,101.738 238.786,102.405 236.5,102.5C 237.918,100.692 239.918,100.025 242.5,100.5 Z"></path></g><g><path style="opacity:0.412" fill="#ffdab7" d="M 233.5,103.5 C 225.562,106.554 217.228,108.221 208.5,108.5C 209.334,107.252 210.667,106.585 212.5,106.5C 219.542,105.589 226.542,104.589 233.5,103.5 Z"></path></g><g><path style="opacity:0.361" fill="#ffd4ad" d="M 80.5,106.5 C 84.1817,106.335 87.8484,106.501 91.5,107C 92.4158,107.278 93.0825,107.778 93.5,108.5C 88.9,108.72 84.5667,108.054 80.5,106.5 Z"></path></g><g><path style="opacity:0.302" fill="#fdc194" d="M 152.5,103.5 C 153.931,103.881 154.764,104.881 155,106.5C 155.942,109.271 156.108,111.938 155.5,114.5C 153.926,111.093 152.926,107.427 152.5,103.5 Z"></path></g><g><path style="opacity:0.498" fill="#ffc593" d="M 148.5,106.5 C 148.41,110.214 147.41,113.548 145.5,116.5C 144.957,116.44 144.624,116.107 144.5,115.5C 145.189,113.556 145.689,111.556 146,109.5C 146.236,107.881 147.069,106.881 148.5,106.5 Z"></path></g><g><path style="opacity:0.929" fill="#fbcfaf" d="M 119.5,118.5 C 121.235,121.839 120.568,124.506 117.5,126.5C 117.565,123.572 118.232,120.905 119.5,118.5 Z"></path></g><g><path style="opacity:0.847" fill="#ffd6b2" d="M 143.5,124.5 C 142.581,131.373 141.247,138.04 139.5,144.5C 139.214,137.259 140.548,130.592 143.5,124.5 Z"></path></g><g><path style="opacity:0.486" fill="#facfad" d="M 158.5,125.5 C 160.045,126.23 160.878,127.563 161,129.5C 161.912,134.464 162.412,139.464 162.5,144.5C 160.677,138.39 159.343,132.057 158.5,125.5 Z"></path></g><g><path style="opacity:0.024" fill="#ffb885" d="M 180.5,146.5 C 179.432,147.434 178.099,147.768 176.5,147.5C 176.62,146.414 177.287,145.747 178.5,145.5C 179.416,145.543 180.083,145.876 180.5,146.5 Z"></path></g></svg>